<svg width="25" height="24" viewBox="0 0 25 24" fill="none" xmlns="http://www.w3.org/2000/svg">
<path d="M21.9198 10.9224C22.0988 10.8434 22.2507 10.7136 22.3567 10.5492C22.4627 10.3847 22.5181 10.1927 22.5161 9.99709C22.5141 9.80144 22.4547 9.61068 22.3454 9.44844C22.236 9.2862 22.0814 9.15961 21.9008 9.08436L13.3298 5.18036C13.0692 5.06151 12.7862 5 12.4998 5C12.2134 5 11.9304 5.06151 11.6698 5.18036L3.0998 9.08036C2.92177 9.15833 2.77031 9.28649 2.66396 9.44917C2.55761 9.61185 2.50098 9.802 2.50098 9.99636C2.50098 10.1907 2.55761 10.3809 2.66396 10.5435C2.77031 10.7062 2.92177 10.8344 3.0998 10.9124L11.6698 14.8204C11.9304 14.9392 12.2134 15.0007 12.4998 15.0007C12.7862 15.0007 13.0692 14.9392 13.3298 14.8204L21.9198 10.9224Z" stroke="#8194FF" stroke-width="2" stroke-linecap="round" stroke-linejoin="round"/>
<path d="M22.5 10V16" stroke="#8194FF" stroke-width="2" stroke-linecap="round" stroke-linejoin="round"/>
<path d="M6.5 12.5V16C6.5 16.7956 7.13214 17.5587 8.25736 18.1213C9.38258 18.6839 10.9087 19 12.5 19C14.0913 19 15.6174 18.6839 16.7426 18.1213C17.8679 17.5587 18.5 16.7956 18.5 16V12.5" stroke="#8194FF" stroke-width="2" stroke-linecap="round" stroke-linejoin="round"/>
</svg>
