<svg width="25" height="25" viewBox="0 0 25 25" fill="none" xmlns="http://www.w3.org/2000/svg">
<path d="M20.25 3.5H15.25C14.6977 3.5 14.25 3.94772 14.25 4.5V9.5C14.25 10.0523 14.6977 10.5 15.25 10.5H20.25C20.8023 10.5 21.25 10.0523 21.25 9.5V4.5C21.25 3.94772 20.8023 3.5 20.25 3.5Z" stroke="#02010B" stroke-width="2" stroke-linecap="round" stroke-linejoin="round"/>
<path d="M10.25 21.5V8.5C10.25 8.23478 10.1446 7.98043 9.95711 7.79289C9.76957 7.60536 9.51522 7.5 9.25 7.5H4.25C3.98478 7.5 3.73043 7.60536 3.54289 7.79289C3.35536 7.98043 3.25 8.23478 3.25 8.5V20.5C3.25 20.7652 3.35536 21.0196 3.54289 21.2071C3.73043 21.3946 3.98478 21.5 4.25 21.5H16.25C16.5152 21.5 16.7696 21.3946 16.9571 21.2071C17.1446 21.0196 17.25 20.7652 17.25 20.5V15.5C17.25 15.2348 17.1446 14.9804 16.9571 14.7929C16.7696 14.6054 16.5152 14.5 16.25 14.5H3.25" stroke="#02010B" stroke-width="2" stroke-linecap="round" stroke-linejoin="round"/>
</svg>
