<svg width="30" height="30" viewBox="0 0 30 30" fill="none" xmlns="http://www.w3.org/2000/svg">
<path d="M15 6.75C13.906 7.84402 13.2914 9.32782 13.2914 10.875C13.2914 12.4222 13.906 13.906 15 15C16.094 16.094 17.5778 16.7086 19.125 16.7086C20.6722 16.7086 22.156 16.094 23.25 15C23.25 16.6317 22.7662 18.2267 21.8596 19.5835C20.9531 20.9402 19.6646 21.9976 18.1571 22.622C16.6497 23.2464 14.9909 23.4098 13.3905 23.0915C11.7902 22.7732 10.3202 21.9874 9.16637 20.8336C8.01259 19.6798 7.22685 18.2098 6.90853 16.6095C6.5902 15.0092 6.75357 13.3504 7.378 11.8429C8.00242 10.3354 9.05984 9.0469 10.4165 8.14038C11.7733 7.23385 13.3683 6.75 15 6.75Z" stroke="#8194FF" stroke-width="1.83333" stroke-linecap="round" stroke-linejoin="round"/>
</svg>
