<svg width="30" height="30" viewBox="0 0 30 30" fill="none" xmlns="http://www.w3.org/2000/svg">
<path d="M12.5 22C18.0228 22 22.5 17.5228 22.5 12C22.5 6.47715 18.0228 2 12.5 2C6.97715 2 2.5 6.47715 2.5 12C2.5 17.5228 6.97715 22 12.5 22Z" stroke="white" stroke-width="2" stroke-linecap="round" stroke-linejoin="round"/>
<path d="M16.5 8H10.5C9.96957 8 9.46086 8.21071 9.08579 8.58579C8.71071 8.96086 8.5 9.46957 8.5 10C8.5 10.5304 8.71071 11.0391 9.08579 11.4142C9.46086 11.7893 9.96957 12 10.5 12H14.5C15.0304 12 15.5391 12.2107 15.9142 12.5858C16.2893 12.9609 16.5 13.4696 16.5 14C16.5 14.5304 16.2893 15.0391 15.9142 15.4142C15.5391 15.7893 15.0304 16 14.5 16H8.5" stroke="white" stroke-width="2" stroke-linecap="round" stroke-linejoin="round"/>
<path d="M12.5 18V6" stroke="white" stroke-width="2" stroke-linecap="round" stroke-linejoin="round"/>
</svg>
