<svg width="30" height="30" viewBox="0 0 30 30" fill="none" xmlns="http://www.w3.org/2000/svg">
<path d="M2.75 10.083H5.5C5.98623 10.083 6.45255 10.2762 6.79636 10.62C7.14018 10.9638 7.33333 11.4301 7.33333 11.9163V14.6663C7.33333 15.1526 7.14018 15.6189 6.79636 15.9627C6.45255 16.3065 5.98623 16.4997 5.5 16.4997H4.58333C4.0971 16.4997 3.63079 16.3065 3.28697 15.9627C2.94315 15.6189 2.75 15.1526 2.75 14.6663V10.083ZM2.75 10.083C2.75 8.9996 2.96339 7.92681 3.37799 6.92587C3.7926 5.92493 4.40029 5.01546 5.16637 4.24938C5.93245 3.48329 6.84193 2.8756 7.84286 2.461C8.8438 2.0464 9.91659 1.83301 11 1.83301C12.0834 1.83301 13.1562 2.0464 14.1571 2.461C15.1581 2.8756 16.0675 3.48329 16.8336 4.24938C17.5997 5.01546 18.2074 5.92493 18.622 6.92587C19.0366 7.92681 19.25 8.9996 19.25 10.083M19.25 10.083V14.6663C19.25 15.1526 19.0568 15.6189 18.713 15.9627C18.3692 16.3065 17.9029 16.4997 17.4167 16.4997H16.5C16.0138 16.4997 15.5475 16.3065 15.2036 15.9627C14.8598 15.6189 14.6667 15.1526 14.6667 14.6663V11.9163C14.6667 11.4301 14.8598 10.9638 15.2036 10.62C15.5475 10.2762 16.0138 10.083 16.5 10.083H19.25Z" stroke="#CCFD14" stroke-width="2" stroke-linecap="round" stroke-linejoin="round"/>
<path d="M19.25 14.667V16.5003C19.25 17.4728 18.8637 18.4054 18.1761 19.093C17.4884 19.7807 16.5558 20.167 15.5833 20.167H11" stroke="#CCFD14" stroke-width="2" stroke-linecap="round" stroke-linejoin="round"/>
</svg>
