<svg width="25" height="24" viewBox="0 0 25 24" fill="none" xmlns="http://www.w3.org/2000/svg">
<path d="M9.375 3H4.375C3.82272 3 3.375 3.44772 3.375 4V11C3.375 11.5523 3.82272 12 4.375 12H9.375C9.92728 12 10.375 11.5523 10.375 11V4C10.375 3.44772 9.92728 3 9.375 3Z" stroke="white" stroke-width="1.5" stroke-linecap="round" stroke-linejoin="round"/>
<path d="M20.375 3H15.375C14.8227 3 14.375 3.44772 14.375 4V7C14.375 7.55228 14.8227 8 15.375 8H20.375C20.9273 8 21.375 7.55228 21.375 7V4C21.375 3.44772 20.9273 3 20.375 3Z" stroke="white" stroke-width="1.5" stroke-linecap="round" stroke-linejoin="round"/>
<path d="M20.375 12H15.375C14.8227 12 14.375 12.4477 14.375 13V20C14.375 20.5523 14.8227 21 15.375 21H20.375C20.9273 21 21.375 20.5523 21.375 20V13C21.375 12.4477 20.9273 12 20.375 12Z" stroke="white" stroke-width="1.5" stroke-linecap="round" stroke-linejoin="round"/>
<path d="M9.375 16H4.375C3.82272 16 3.375 16.4477 3.375 17V20C3.375 20.5523 3.82272 21 4.375 21H9.375C9.92728 21 10.375 20.5523 10.375 20V17C10.375 16.4477 9.92728 16 9.375 16Z" stroke="white" stroke-width="1.5" stroke-linecap="round" stroke-linejoin="round"/>
</svg>
