<svg width="25" height="24" viewBox="0 0 25 24" fill="none" xmlns="http://www.w3.org/2000/svg">
<path d="M22.0448 10.922C22.2238 10.843 22.3757 10.7133 22.4817 10.5488C22.5877 10.3843 22.6431 10.1924 22.6411 9.99674C22.6391 9.80108 22.5797 9.61032 22.4704 9.44808C22.361 9.28584 22.2064 9.15925 22.0258 9.084L13.4548 5.18C13.1942 5.06115 12.9112 4.99964 12.6248 4.99964C12.3384 4.99964 12.0554 5.06115 11.7948 5.18L3.2248 9.08C3.04677 9.15797 2.89531 9.28613 2.78896 9.44881C2.68261 9.61149 2.62598 9.80164 2.62598 9.996C2.62598 10.1904 2.68261 10.3805 2.78896 10.5432C2.89531 10.7059 3.04677 10.834 3.2248 10.912L11.7948 14.82C12.0554 14.9388 12.3384 15.0004 12.6248 15.0004C12.9112 15.0004 13.1942 14.9388 13.4548 14.82L22.0448 10.922Z" stroke="white" stroke-width="1.5" stroke-linecap="round" stroke-linejoin="round"/>
<path d="M22.625 10V16" stroke="white" stroke-width="1.5" stroke-linecap="round" stroke-linejoin="round"/>
<path d="M6.625 12.5V16C6.625 16.7956 7.25714 17.5587 8.38236 18.1213C9.50758 18.6839 11.0337 19 12.625 19C14.2163 19 15.7424 18.6839 16.8676 18.1213C17.9929 17.5587 18.625 16.7956 18.625 16V12.5" stroke="white" stroke-width="1.5" stroke-linecap="round" stroke-linejoin="round"/>
</svg>
