<svg width="25" height="24" viewBox="0 0 25 24" fill="none" xmlns="http://www.w3.org/2000/svg">
<path d="M12.625 6V13" stroke="white" stroke-width="2" stroke-linecap="round" stroke-linejoin="round"/>
<path d="M16.625 8V11" stroke="white" stroke-width="2" stroke-linecap="round" stroke-linejoin="round"/>
<path d="M4.625 19.5V4.5C4.625 3.83696 4.88839 3.20107 5.35723 2.73223C5.82607 2.26339 6.46196 2 7.125 2H19.625C19.8902 2 20.1446 2.10536 20.3321 2.29289C20.5196 2.48043 20.625 2.73478 20.625 3V21C20.625 21.2652 20.5196 21.5196 20.3321 21.7071C20.1446 21.8946 19.8902 22 19.625 22H7.125C6.46196 22 5.82607 21.7366 5.35723 21.2678C4.88839 20.7989 4.625 20.163 4.625 19.5ZM4.625 19.5C4.625 18.837 4.88839 18.2011 5.35723 17.7322C5.82607 17.2634 6.46196 17 7.125 17H20.625" stroke="white" stroke-width="2" stroke-linecap="round" stroke-linejoin="round"/>
<path d="M8.625 8V11" stroke="white" stroke-width="2" stroke-linecap="round" stroke-linejoin="round"/>
</svg>
