<svg width="30" height="30" viewBox="0 0 30 30" fill="none" xmlns="http://www.w3.org/2000/svg">
<path d="M1.83334 2.75H7.33334C8.3058 2.75 9.23844 3.13631 9.92607 3.82394C10.6137 4.51158 11 5.44421 11 6.41667V19.25C11 18.5207 10.7103 17.8212 10.1946 17.3055C9.67883 16.7897 8.97936 16.5 8.25001 16.5H1.83334V2.75Z" stroke="#CCFD14" stroke-width="2" stroke-linecap="round" stroke-linejoin="round"/>
<path d="M20.1667 2.75H14.6667C13.6942 2.75 12.7616 3.13631 12.0739 3.82394C11.3863 4.51158 11 5.44421 11 6.41667V19.25C11 18.5207 11.2897 17.8212 11.8055 17.3055C12.3212 16.7897 13.0207 16.5 13.75 16.5H20.1667V2.75Z" stroke="#CCFD14" stroke-width="2" stroke-linecap="round" stroke-linejoin="round"/>
<path d="M5.5 7.33301H7.33333" stroke="#CCFD14" stroke-width="2" stroke-linecap="round" stroke-linejoin="round"/>
<path d="M5.5 11H7.33333" stroke="#CCFD14" stroke-width="2" stroke-linecap="round" stroke-linejoin="round"/>
<path d="M14.6667 7.33301H16.5" stroke="#CCFD14" stroke-width="2" stroke-linecap="round" stroke-linejoin="round"/>
<path d="M14.6667 11H16.5" stroke="#CCFD14" stroke-width="2" stroke-linecap="round" stroke-linejoin="round"/>
</svg>
