<svg width="30" height="30" viewBox="0 0 30 30" fill="none" xmlns="http://www.w3.org/2000/svg">
<path d="M23.25 17.75C23.25 18.2362 23.0568 18.7025 22.713 19.0464C22.3692 19.3902 21.9029 19.5833 21.4167 19.5833H10.4167L6.75 23.25V8.58333C6.75 8.0971 6.94315 7.63079 7.28697 7.28697C7.63079 6.94315 8.0971 6.75 8.58333 6.75H21.4167C21.9029 6.75 22.3692 6.94315 22.713 7.28697C23.0568 7.63079 23.25 8.0971 23.25 8.58333V17.75Z" stroke="#8194FF" stroke-width="1.83333" stroke-linecap="round" stroke-linejoin="round"/>
<path d="M11.333 14.9997C11.8192 14.9997 12.2856 14.8065 12.6294 14.4627C12.9732 14.1189 13.1663 13.6526 13.1663 13.1663V11.333H11.333" stroke="#8194FF" stroke-width="1.83333" stroke-linecap="round" stroke-linejoin="round"/>
<path d="M16.833 14.9997C17.3192 14.9997 17.7856 14.8065 18.1294 14.4627C18.4732 14.1189 18.6663 13.6526 18.6663 13.1663V11.333H16.833" stroke="#8194FF" stroke-width="1.83333" stroke-linecap="round" stroke-linejoin="round"/>
</svg>
