<svg width="21" height="20" viewBox="0 0 21 20" fill="none" xmlns="http://www.w3.org/2000/svg">
<g clip-path="url(#clip0_2725_11207)">
<path fill-rule="evenodd" clip-rule="evenodd" d="M20.1 10.2273C20.1 9.51819 20.0364 8.83637 19.9182 8.18182H10.5V12.05H15.8818C15.65 13.3 14.9455 14.3591 13.8864 15.0682V17.5773H17.1182C19.0091 15.8364 20.1 13.2727 20.1 10.2273Z" fill="white"/>
<path fill-rule="evenodd" clip-rule="evenodd" d="M10.4998 20C13.1998 20 15.4635 19.1045 17.118 17.5772L13.8862 15.0681C12.9907 15.6681 11.8453 16.0227 10.4998 16.0227C7.89529 16.0227 5.69075 14.2636 4.90439 11.9H1.56348V14.4909C3.20893 17.7591 6.59075 20 10.4998 20Z" fill="white"/>
<path fill-rule="evenodd" clip-rule="evenodd" d="M4.90455 11.9C4.70455 11.3 4.59091 10.6591 4.59091 10C4.59091 9.34091 4.70455 8.7 4.90455 8.1V5.50909H1.56364C0.886364 6.85909 0.5 8.38637 0.5 10C0.5 11.6136 0.886364 13.1409 1.56364 14.4909L4.90455 11.9Z" fill="white"/>
<path fill-rule="evenodd" clip-rule="evenodd" d="M10.4998 3.97727C11.968 3.97727 13.2862 4.48182 14.3226 5.47273L17.1907 2.60455C15.4589 0.990909 13.1953 0 10.4998 0C6.59075 0 3.20893 2.24091 1.56348 5.50909L4.90439 8.1C5.69075 5.73636 7.89529 3.97727 10.4998 3.97727Z" fill="white"/>
</g>
<defs>
<clipPath id="clip0_2725_11207">
<rect width="20" height="20" fill="white" transform="translate(0.5)"/>
</clipPath>
</defs>
</svg>
