<svg width="25" height="24" viewBox="0 0 25 24" fill="none" xmlns="http://www.w3.org/2000/svg">
<path d="M15.125 21V13C15.125 12.7348 15.0196 12.4804 14.8321 12.2929C14.6446 12.1054 14.3902 12 14.125 12H10.125C9.85978 12 9.60543 12.1054 9.41789 12.2929C9.23036 12.4804 9.125 12.7348 9.125 13V21" stroke="white" stroke-width="1.5" stroke-linecap="round" stroke-linejoin="round"/>
<path d="M3.125 10C3.12493 9.70907 3.18833 9.42162 3.31079 9.15771C3.43324 8.89381 3.6118 8.65979 3.834 8.472L10.834 2.473C11.195 2.16791 11.6524 2.00052 12.125 2.00052C12.5976 2.00052 13.055 2.16791 13.416 2.473L20.416 8.472C20.6382 8.65979 20.8168 8.89381 20.9392 9.15771C21.0617 9.42162 21.1251 9.70907 21.125 10V19C21.125 19.5304 20.9143 20.0391 20.5392 20.4142C20.1641 20.7893 19.6554 21 19.125 21H5.125C4.59457 21 4.08586 20.7893 3.71079 20.4142C3.33571 20.0391 3.125 19.5304 3.125 19V10Z" stroke="white" stroke-width="1.5" stroke-linecap="round" stroke-linejoin="round"/>
</svg>
