<svg width="30" height="30" viewBox="0 0 30 30" fill="none" xmlns="http://www.w3.org/2000/svg">
<path d="M10.9997 15.5833C11.5059 15.5833 11.9163 15.1729 11.9163 14.6667C11.9163 14.1604 11.5059 13.75 10.9997 13.75C10.4934 13.75 10.083 14.1604 10.083 14.6667C10.083 15.1729 10.4934 15.5833 10.9997 15.5833Z" stroke="#8194FF" stroke-width="1.83333" stroke-linecap="round" stroke-linejoin="round"/>
<path d="M17.4167 9.16699H4.58333C3.57081 9.16699 2.75 9.9878 2.75 11.0003V18.3337C2.75 19.3462 3.57081 20.167 4.58333 20.167H17.4167C18.4292 20.167 19.25 19.3462 19.25 18.3337V11.0003C19.25 9.9878 18.4292 9.16699 17.4167 9.16699Z" stroke="#8194FF" stroke-width="1.83333" stroke-linecap="round" stroke-linejoin="round"/>
<path d="M6.41699 9.16634V6.41634C6.41699 5.20077 6.89988 4.03498 7.75942 3.17544C8.61896 2.31589 9.78475 1.83301 11.0003 1.83301C12.2159 1.83301 13.3817 2.31589 14.2412 3.17544C15.1008 4.03498 15.5837 5.20077 15.5837 6.41634V9.16634" stroke="#8194FF" stroke-width="1.83333" stroke-linecap="round" stroke-linejoin="round"/>
</svg>
