<svg width="30" height="30" viewBox="0 0 30 30" fill="none" xmlns="http://www.w3.org/2000/svg">
<path d="M19.0803 21.6418C20.3979 20.8327 21.445 19.65 22.0885 18.2441C22.1408 18.1379 22.2322 18.0561 22.3436 18.0158C22.4563 17.975 22.5804 17.98 22.6894 18.0296C22.7984 18.0792 22.8837 18.1695 22.927 18.2812C22.9697 18.3915 22.9681 18.5141 22.9226 18.6232C21.1908 22.4251 16.9175 24.5322 12.7478 23.4147L12.7477 23.4147C10.9068 22.9219 9.27827 21.8388 8.11203 20.3316C6.94584 18.8244 6.30625 16.9762 6.29136 15.0706C6.28857 14.6522 6.73118 14.3946 7.08959 14.5788L7.15571 14.6192L9.60199 16.2671C10.0778 16.5877 9.79989 17.3315 9.25028 17.2729L9.16596 17.2585L8.20215 17.0463L7.38985 16.8675L7.67258 17.6497C8.1988 19.1056 9.14668 20.3718 10.3954 21.2869C11.6441 22.2019 13.137 22.7244 14.6838 22.7876C16.2306 22.8508 17.7611 22.4519 19.0803 21.6418ZM15.458 11.3339V11.7923H15.9164H16.833C17.1735 11.7923 17.5073 11.8871 17.7969 12.0661C18.0865 12.2451 18.3206 12.5012 18.4728 12.8057C18.6251 13.1102 18.6895 13.4512 18.659 13.7902C18.6284 14.1293 18.504 14.4532 18.2997 14.7256L18.0935 15.0006L18.2997 15.2756C18.504 15.548 18.6284 15.8719 18.659 16.211C18.6895 16.5501 18.6251 16.891 18.4728 17.1955C18.3206 17.5 18.0865 17.7561 17.7969 17.9351C17.5073 18.1141 17.1735 18.2089 16.833 18.2089H15.9164H15.458V18.6673V19.5839C15.458 19.7055 15.4097 19.8221 15.3238 19.908C15.2378 19.994 15.1213 20.0423 14.9997 20.0423C14.8781 20.0423 14.7616 19.994 14.6756 19.908C14.5897 19.8221 14.5414 19.7055 14.5414 19.5839V18.6673V18.2089H14.083H12.3414C12.1955 18.2089 12.0556 18.151 11.9525 18.0478C11.8493 17.9447 11.7914 17.8048 11.7914 17.6589V12.3423C11.7914 12.1964 11.8493 12.0565 11.9525 11.9534L11.6284 11.6293L11.9525 11.9534C12.0556 11.8502 12.1955 11.7923 12.3414 11.7923H14.083H14.5414V11.3339V10.4173C14.5414 10.2957 14.5897 10.1791 14.6756 10.0932C14.7616 10.0072 14.8781 9.95894 14.9997 9.95894C15.1213 9.95894 15.2378 10.0072 15.3238 10.0932C15.4097 10.1791 15.458 10.2957 15.458 10.4173V11.3339ZM13.1664 15.4589H12.708V15.9173V16.8339V17.2923H13.1664H16.833C17.0761 17.2923 17.3093 17.1957 17.4812 17.0238C17.6531 16.8519 17.7497 16.6187 17.7497 16.3756C17.7497 16.1325 17.6531 15.8993 17.4812 15.7274L17.1571 16.0515L17.4812 15.7274C17.3093 15.5555 17.0761 15.4589 16.833 15.4589H13.1664ZM7.07361 11.3974L7.07371 11.3974L7.07801 11.388C8.80822 7.58275 13.0835 5.47392 17.2553 6.59109L17.2554 6.5911C19.0962 7.08384 20.7246 8.16678 21.8908 9.67388C23.057 11.181 23.6967 13.029 23.7117 14.9346V14.9347C23.7151 15.3549 23.2706 15.6118 22.9139 15.4268L22.8465 15.386L20.4011 13.7387C20.4011 13.7387 20.401 13.7387 20.401 13.7386C19.9253 13.418 20.2032 12.6743 20.7528 12.7329L20.8371 12.7473L21.8009 12.9595L22.6132 13.1383L22.3305 12.3561C21.8043 10.9002 20.8564 9.63396 19.6077 8.71891C18.359 7.80386 16.8661 7.28142 15.3193 7.21821C13.7725 7.15499 12.2419 7.55387 10.9227 8.36398C9.60354 9.17409 8.55549 10.3587 7.91223 11.7668L7.91211 11.7668L7.90777 11.7769C7.88374 11.833 7.84874 11.8838 7.80483 11.9262L8.12322 12.2559L7.80483 11.9262C7.76091 11.9686 7.70896 12.0018 7.65203 12.0239C7.5951 12.0459 7.53433 12.0564 7.4733 12.0546C7.41227 12.0529 7.35221 12.039 7.29663 12.0137C7.24106 11.9884 7.19109 11.9523 7.14968 11.9074C7.10826 11.8626 7.07622 11.8099 7.05545 11.7525C7.03467 11.6951 7.02558 11.6341 7.02869 11.5731C7.03181 11.5121 7.04708 11.4524 7.07361 11.3974ZM13.1664 12.7089H12.708V13.1673V14.0839V14.5423H13.1664H16.833C17.0761 14.5423 17.3093 14.4457 17.4812 14.2738C17.6531 14.1019 17.7497 13.8687 17.7497 13.6256C17.7497 13.3825 17.6531 13.1493 17.4812 12.9774C17.3093 12.8055 17.0762 12.7089 16.833 12.7089H13.1664Z" fill="#8194FF" stroke="#8194FF" stroke-width="0.916667"/>
</svg>
