<svg width="30" height="30" viewBox="0 0 30 30" fill="none" xmlns="http://www.w3.org/2000/svg">
<g clip-path="url(#clip0_3461_33135)">
<path d="M14.9997 5.83398C13.1867 5.83398 11.4144 6.3716 9.90695 7.37885C8.3995 8.38609 7.22459 9.81773 6.53078 11.4927C5.83698 13.1677 5.65545 15.0108 6.00915 16.789C6.36284 18.5671 7.23589 20.2005 8.51787 21.4825C9.79985 22.7644 11.4332 23.6375 13.2114 23.9912C14.9895 24.3449 16.8326 24.1634 18.5076 23.4695C20.1826 22.7757 21.6142 21.6008 22.6215 20.0934C23.6287 18.5859 24.1663 16.8136 24.1663 15.0007C23.5293 15.1968 22.8508 15.2156 22.2038 15.055C21.5569 14.8944 20.9659 14.5604 20.4946 14.0891C20.0232 13.6177 19.6893 13.0268 19.5287 12.3798C19.3681 11.7329 19.3868 11.0544 19.583 10.4173C18.9459 10.6135 18.2674 10.6323 17.6205 10.4717C16.9735 10.311 16.3826 9.97709 15.9113 9.50574C15.4399 9.03439 15.106 8.44346 14.9453 7.79651C14.7847 7.14956 14.8035 6.47106 14.9997 5.83398Z" stroke="#8194FF" stroke-width="1.83333" stroke-linecap="round" stroke-linejoin="round"/>
<path d="M11.792 11.791V11.801" stroke="#8194FF" stroke-width="1.83333" stroke-linecap="round" stroke-linejoin="round"/>
<path d="M18.667 18.209V18.219" stroke="#8194FF" stroke-width="1.83333" stroke-linecap="round" stroke-linejoin="round"/>
<path d="M15 15V15.01" stroke="#8194FF" stroke-width="1.83333" stroke-linecap="round" stroke-linejoin="round"/>
<path d="M14.083 19.584V19.594" stroke="#8194FF" stroke-width="1.83333" stroke-linecap="round" stroke-linejoin="round"/>
<path d="M10.417 16.834V16.844" stroke="#8194FF" stroke-width="1.83333" stroke-linecap="round" stroke-linejoin="round"/>
</g>
<defs>
<clipPath id="clip0_3461_33135">
<rect width="22" height="22" fill="white" transform="translate(4 4)"/>
</clipPath>
</defs>
</svg>
