<svg width="39" height="36" viewBox="0 0 39 36" fill="none" xmlns="http://www.w3.org/2000/svg">
<path d="M34.3474 16.6167L30.6835 19.2805C30.6156 19.3295 30.5892 19.4164 30.6118 19.4956L32.0118 23.8047C32.0722 23.982 31.8684 24.1254 31.7213 24.0198L28.0537 21.3559C27.9857 21.3068 27.8952 21.3068 27.831 21.3559L24.1634 24.0198C24.0125 24.1254 23.8125 23.982 23.869 23.8047L25.269 19.4956C25.2954 19.4163 25.269 19.3295 25.201 19.2805L21.5334 16.6167C21.3825 16.5073 21.4617 16.2733 21.6467 16.2733H26.1784C26.2614 16.2733 26.3331 16.2204 26.3595 16.1413L27.7593 11.8284C27.8159 11.6549 28.065 11.6549 28.1215 11.8284L29.5213 16.1413C29.5477 16.2205 29.6232 16.2733 29.7062 16.2733H34.2379C34.4228 16.2733 34.4983 16.5073 34.3474 16.6167Z" fill="#8194FF"/>
<path d="M17.0232 16.6167L13.3593 19.2805C13.2914 19.3295 13.265 19.4164 13.2876 19.4956L14.6876 23.8047C14.748 23.982 14.5441 24.1254 14.3971 24.0198L10.7295 21.3559C10.6615 21.3068 10.571 21.3068 10.5068 21.3559L6.8392 24.0198C6.68824 24.1254 6.4883 23.982 6.54483 23.8047L7.94476 19.4956C7.97114 19.4163 7.94476 19.3295 7.87682 19.2805L4.20923 16.6167C4.05827 16.5073 4.13752 16.2733 4.32249 16.2733H8.85415C8.93716 16.2733 9.00887 16.2204 9.03525 16.1413L10.4351 11.8284C10.4917 11.6549 10.7408 11.6549 10.7973 11.8284L12.1972 16.1413C12.2236 16.2205 12.2991 16.2733 12.3821 16.2733H16.9138C17.0986 16.2733 17.1741 16.5073 17.0232 16.6167Z" fill="#8194FF"/>
<path d="M8.00253 9.15858C6.71606 9.48509 6.45491 9.74633 6.13486 11.0327C5.80836 9.74633 5.54721 9.48509 4.26074 9.15858C5.54721 8.83863 5.80836 8.57749 6.13486 7.29102C6.45481 8.57739 6.71606 8.83863 8.00253 9.15858Z" fill="#8194FF"/>
<path d="M32.6091 28.9392C31.2236 29.2909 30.9422 29.5722 30.5976 30.9577C30.2459 29.5722 29.9647 29.2909 28.5791 28.9392C29.9647 28.5946 30.2459 28.3133 30.5976 26.9277C30.9423 28.3133 31.2236 28.5946 32.6091 28.9392Z" fill="#8194FF"/>
<path d="M19.6939 28.9407C18.9376 29.1326 18.7841 29.2862 18.5959 30.0425C18.404 29.2862 18.2505 29.1326 17.4941 28.9407C18.2505 28.7526 18.404 28.5991 18.5959 27.8428C18.7841 28.5991 18.9376 28.7526 19.6939 28.9407Z" fill="#8194FF"/>
<path d="M26.5309 6.10644C25.2945 6.42028 25.0434 6.67132 24.7358 7.90771C24.422 6.67132 24.1711 6.42028 22.9346 6.10644C24.171 5.79896 24.422 5.54791 24.7358 4.31152C25.0434 5.54791 25.2945 5.79896 26.5309 6.10644Z" fill="#8194FF"/>
<path d="M16.0406 6.39829C14.9368 6.6784 14.7127 6.90257 14.4381 8.00634C14.158 6.90257 13.9339 6.6784 12.8301 6.39829C13.9339 6.12374 14.158 5.89967 14.4381 4.7959C14.7127 5.89967 14.9367 6.12374 16.0406 6.39829Z" fill="#8194FF"/>
<path d="M35.4491 10.3891C34.4728 10.6369 34.2746 10.8351 34.0317 11.8115C33.784 10.8351 33.5857 10.6369 32.6094 10.3891C33.5857 10.1463 33.784 9.94799 34.0317 8.97168C34.2746 9.94809 34.4727 10.1463 35.4491 10.3891Z" fill="#8194FF"/>
<path d="M8.13665 28.518C7.16033 28.7658 6.96206 28.964 6.71924 29.9404C6.47147 28.964 6.27319 28.7658 5.29688 28.518C6.27319 28.2752 6.47147 28.0769 6.71924 27.1006C6.96206 28.077 7.16033 28.2752 8.13665 28.518Z" fill="#8194FF"/>
</svg>
