<svg width="40" height="36" viewBox="0 0 40 36" fill="none" xmlns="http://www.w3.org/2000/svg">
<path d="M29.0213 16.1715L23.8369 19.941C23.7408 20.0104 23.7034 20.1332 23.7355 20.2453L25.7163 26.3426C25.8017 26.5935 25.5134 26.7964 25.3052 26.647L20.1156 22.8775C20.0195 22.8081 19.8913 22.8081 19.8006 22.8775L14.6109 26.647C14.3974 26.7964 14.1144 26.5935 14.1945 26.3426L16.1753 20.2453C16.2127 20.1332 16.1753 20.0103 16.0792 19.941L10.8896 16.1715C10.6761 16.0167 10.7881 15.6856 11.0498 15.6856H17.4621C17.5795 15.6856 17.681 15.6108 17.7184 15.4988L19.6992 9.39609C19.7793 9.15052 20.1316 9.15052 20.2118 9.39609L22.1926 15.4988C22.23 15.6108 22.3367 15.6856 22.4542 15.6856H28.8666C29.1281 15.6856 29.2348 16.0167 29.0213 16.1715Z" fill="#8194FF"/>
<path d="M39.0241 20.6079L35.3603 23.2718C35.2924 23.3208 35.266 23.4076 35.2886 23.4868L36.6885 27.7959C36.7489 27.9732 36.5451 28.1166 36.398 28.011L32.7304 25.3471C32.6625 25.298 32.5719 25.298 32.5078 25.3471L28.8402 28.011C28.6892 28.1166 28.4893 27.9732 28.5458 27.7959L29.9457 23.4868C29.9721 23.4075 29.9457 23.3208 29.8778 23.2718L26.2102 20.6079C26.0592 20.4985 26.1385 20.2645 26.3235 20.2645H30.8551C30.9381 20.2645 31.0098 20.2116 31.0362 20.1325L32.4361 15.8196C32.4927 15.6461 32.7417 15.6461 32.7983 15.8196L34.1981 20.1325C34.2245 20.2117 34.3 20.2645 34.383 20.2645H38.9146C39.0996 20.2645 39.1751 20.4985 39.0241 20.6079Z" fill="#8194FF"/>
<path d="M13.6999 20.6079L10.0361 23.2718C9.96814 23.3208 9.94176 23.4076 9.96438 23.4868L11.3643 27.7959C11.4247 27.9732 11.2209 28.1166 11.0738 28.011L7.40621 25.3471C7.33827 25.298 7.24772 25.298 7.18355 25.3471L3.51595 28.011C3.365 28.1166 3.16505 27.9732 3.22159 27.7959L4.62152 23.4868C4.6479 23.4075 4.62152 23.3208 4.55358 23.2718L0.885983 20.6079C0.73503 20.4985 0.814276 20.2645 0.999248 20.2645H5.53091C5.61392 20.2645 5.68563 20.2116 5.71201 20.1325L7.11184 15.8196C7.16848 15.6461 7.41752 15.6461 7.47405 15.8196L8.87399 20.1325C8.90037 20.2117 8.97584 20.2645 9.05886 20.2645H13.5905C13.7754 20.2645 13.8509 20.4985 13.6999 20.6079Z" fill="#8194FF"/>
<path d="M8.9996 10.0375C7.71313 10.364 7.45198 10.6252 7.13193 11.9116C6.80543 10.6252 6.54428 10.364 5.25781 10.0375C6.54428 9.71753 6.80543 9.45639 7.13193 8.16992C7.45188 9.45629 7.71313 9.71753 8.9996 10.0375Z" fill="#8194FF"/>
<path d="M34.6052 32.8181C33.2196 33.1698 32.9383 33.4511 32.5937 34.8366C32.242 33.4511 31.9607 33.1698 30.5752 32.8181C31.9607 32.4735 32.242 32.1922 32.5937 30.8066C32.9384 32.1922 33.2196 32.4735 34.6052 32.8181Z" fill="#8194FF"/>
<path d="M21.691 32.8196C20.9347 33.0115 20.7812 33.1651 20.593 33.9214C20.4011 33.1651 20.2475 33.0115 19.4912 32.8196C20.2475 32.6315 20.4011 32.478 20.593 31.7217C20.7812 32.478 20.9347 32.6315 21.691 32.8196Z" fill="#8194FF"/>
<path d="M27.5279 5.98535C26.2915 6.29918 26.0405 6.55023 25.7329 7.78662C25.4191 6.55023 25.1681 6.29918 23.9316 5.98535C25.168 5.67786 25.4191 5.42682 25.7329 4.19043C26.0405 5.42682 26.2915 5.67786 27.5279 5.98535Z" fill="#8194FF"/>
<path d="M18.0377 5.2772C16.9339 5.55731 16.7097 5.78147 16.4352 6.88525C16.1551 5.78147 15.9309 5.55731 14.8271 5.2772C15.9309 5.00264 16.1551 4.77858 16.4352 3.6748C16.7097 4.77858 16.9338 5.00264 18.0377 5.2772Z" fill="#8194FF"/>
<path d="M37.4452 14.268C36.4689 14.5158 36.2706 14.714 36.0278 15.6904C35.7801 14.714 35.5818 14.5158 34.6055 14.268C35.5818 14.0252 35.7801 13.8269 36.0278 12.8506C36.2706 13.827 36.4688 14.0252 37.4452 14.268Z" fill="#8194FF"/>
<path d="M10.1337 33.3969C9.1574 33.6447 8.95913 33.843 8.71631 34.8193C8.46854 33.843 8.27026 33.6447 7.29395 33.3969C8.27026 33.1541 8.46854 32.9558 8.71631 31.9795C8.95913 32.9559 9.1574 33.1541 10.1337 33.3969Z" fill="#8194FF"/>
</svg>
