<svg width="40" height="34" viewBox="0 0 40 34" fill="none" xmlns="http://www.w3.org/2000/svg">
<path d="M28.9642 15.2248L23.7422 18.976C23.6454 19.0451 23.6077 19.1672 23.64 19.2788L25.6352 25.3466C25.7212 25.5963 25.4308 25.7983 25.2211 25.6495L19.9939 21.8983C19.8971 21.8292 19.768 21.8292 19.6766 21.8983L14.4493 25.6495C14.2342 25.7983 13.9492 25.5963 14.0298 25.3466L16.025 19.2788C16.0627 19.1672 16.025 19.045 15.9282 18.976L10.701 15.2248C10.4859 15.0707 10.5988 14.7412 10.8623 14.7412H17.3211C17.4394 14.7412 17.5416 14.6668 17.5793 14.5553L19.5745 8.48212C19.6552 8.23773 20.01 8.23773 20.0908 8.48212L22.086 14.5553C22.1236 14.6668 22.2311 14.7412 22.3495 14.7412H28.8083C29.0718 14.7412 29.1793 15.0707 28.9642 15.2248Z" fill="#8194FF"/>
<path d="M8.58534 14.0519C7.28953 14.3768 7.02649 14.6368 6.70412 15.9169C6.37525 14.6368 6.11221 14.3768 4.81641 14.0519C6.11221 13.7335 6.37525 13.4736 6.70412 12.1934C7.0264 13.4735 7.28953 13.7335 8.58534 14.0519Z" fill="#8194FF"/>
<path d="M33.3698 25.7752C31.9742 26.1252 31.6908 26.4051 31.3437 27.7839C30.9895 26.4051 30.7062 26.1252 29.3105 25.7752C30.7062 25.4322 30.9895 25.1523 31.3437 23.7734C31.6909 25.1523 31.9742 25.4322 33.3698 25.7752Z" fill="#8194FF"/>
<path d="M21.3691 31.7479C20.6073 31.9389 20.4526 32.0917 20.2631 32.8443C20.0698 32.0917 19.9151 31.9389 19.1533 31.7479C19.9151 31.5607 20.0698 31.4079 20.2631 30.6553C20.4526 31.4079 20.6073 31.5607 21.3691 31.7479Z" fill="#8194FF"/>
<path d="M27.2484 6.03819C26.003 6.3505 25.7501 6.60033 25.4403 7.83074C25.1242 6.60033 24.8714 6.3505 23.626 6.03819C24.8713 5.73219 25.1242 5.48236 25.4403 4.25195C25.7501 5.48236 26.003 5.73219 27.2484 6.03819Z" fill="#8194FF"/>
<path d="M15.6743 4.33878C14.5625 4.61754 14.3367 4.84062 14.0601 5.93905C13.778 4.84062 13.5522 4.61754 12.4404 4.33878C13.5522 4.06556 13.778 3.84257 14.0601 2.74414C14.3367 3.84257 14.5624 4.06556 15.6743 4.33878Z" fill="#8194FF"/>
<path d="M35.2227 14.2807C34.2393 14.5272 34.0396 14.7246 33.795 15.6961C33.5454 14.7246 33.3457 14.5272 32.3623 14.2807C33.3457 14.039 33.5454 13.8417 33.795 12.8701C34.0396 13.8418 34.2392 14.039 35.2227 14.2807Z" fill="#8194FF"/>
<path d="M9.72756 27.3461C8.74417 27.5927 8.54445 27.79 8.29987 28.7616C8.0503 27.79 7.85059 27.5927 6.86719 27.3461C7.85059 27.1045 8.0503 26.9071 8.29987 25.9355C8.54445 26.9072 8.74417 27.1045 9.72756 27.3461Z" fill="#8194FF"/>
</svg>
